<?xml version="1.0" ?><svg width="24px" height="24px" viewBox="0 0 24 24" fill="none" xmlns="http://www.w3.org/2000/svg"><path clip-rule="evenodd" d="M3 3C3 1.89543 3.89543 1 5 1H19C20.1046 1 21 1.89543 21 3V16.7861C21 17.2478 20.8403 17.6952 20.5479 18.0525L17.1002 22.2665C16.7203 22.7307 16.1521 23 15.5522 23H5C3.89543 23 3 22.1046 3 21V3ZM6 5C6 3.89543 6.89543 3 8 3H16C17.1046 3 18 3.89543 18 5V9C18 10.1046 17.1046 11 16 11H8C6.89543 11 6 10.1046 6 9V5ZM9.5 19.5C8.94775 19.5 8.5 19.0522 8.5 18.5V17.5H7.5C6.94775 17.5 6.5 17.0522 6.5 16.5C6.5 15.9478 6.94775 15.5 7.5 15.5H8.5V14.5C8.5 13.9478 8.94775 13.5 9.5 13.5C10.0522 13.5 10.5 13.9478 10.5 14.5V15.5H11.5C12.0522 15.5 12.5 15.9478 12.5 16.5C12.5 17.0522 12.0522 17.5 11.5 17.5H10.5V18.5C10.5 19.0522 10.0522 19.5 9.5 19.5ZM17 16C17.5522 16 18 15.5522 18 15C18 14.4478 17.5522 14 17 14C16.4478 14 16 14.4478 16 15C16 15.5522 16.4478 16 17 16ZM16 18C16 18.5522 15.5522 19 15 19C14.4478 19 14 18.5522 14 18C14 17.4478 14.4478 17 15 17C15.5522 17 16 17.4478 16 18Z" fill="#4F4F4F" fill-rule="evenodd"/></svg>