<?xml version="1.0" encoding="iso-8859-1"?>
<!-- Generator: Adobe Illustrator 19.0.0, SVG Export Plug-In . SVG Version: 6.00 Build 0)  -->
<svg version="1.1" id="Layer_1" xmlns="http://www.w3.org/2000/svg" xmlns:xlink="http://www.w3.org/1999/xlink" x="0px" y="0px"
	 viewBox="0 0 456 456" style="enable-background:new 0 0 456 456;" xml:space="preserve">
<g>
	<g>
		<g>
			<path d="M243.6,316H216c-4.4,0-8,3.6-8,8c0,4.4,3.6,8,8,8h27.6c4.4,0,8-3.6,8-8C251.6,319.6,248,316,243.6,316z"/>
			<path d="M455.6,324c0-4.4-3.6-8-8-8H420V116c0-22-18-40-40-40H76c-22,0-40,18-40,40v200H8c-4.4,0-8,3.6-8,8v16c0,22,18,40,40,40
				h376c22,0,40-18,40-40L455.6,324z M440,340c0,13.2-10.8,24-24,24H40c-13.2,0-24-10.8-24-24v-8h160.4c4.4,0,8-3.6,8-8
				c0-4.4-3.6-8-8-8H52V116c0-13.2,10.8-24,24-24h304c13.2,0,24,10.8,24,24v200H284c-4.4,0-8,3.6-8,8c0,4.4,3.6,8,8,8h156V340z"/>
			<path d="M388,288V120c0-6.8-5.2-12-12-12H80c-6.8,0-12,5.2-12,12v168c0,6.8,5.2,12,12,12h296C382.8,300,388,294.8,388,288z
				 M372,284H84V124h288V284z"/>
		</g>
	</g>
</g>
<g>
</g>
<g>
</g>
<g>
</g>
<g>
</g>
<g>
</g>
<g>
</g>
<g>
</g>
<g>
</g>
<g>
</g>
<g>
</g>
<g>
</g>
<g>
</g>
<g>
</g>
<g>
</g>
<g>
</g>
</svg>
