<?xml version="1.0" encoding="iso-8859-1"?>
<!-- Generator: Adobe Illustrator 19.0.0, SVG Export Plug-In . SVG Version: 6.00 Build 0)  -->
<svg version="1.1" id="Capa_1" xmlns="http://www.w3.org/2000/svg" xmlns:xlink="http://www.w3.org/1999/xlink" x="0px" y="0px"
	 viewBox="0 0 487.917 487.917" style="enable-background:new 0 0 487.917 487.917;" xml:space="preserve">
<g>
	<g>
		<path d="M313.2,268.421H174.8c-11.4,0-20.8,9.4-20.8,20.8s9.4,20.8,20.8,20.8h139.4c11.4,0,19.8-8.3,19.8-20.8
			C334,277.821,324.6,268.421,313.2,268.421z"/>
		<path d="M383.4,175.321l-115-115c-8.3-8.3-20.8-8.3-29.1,0c-8.3,8.3-8.3,20.8,0,29.1l85.3,85.3H115.5
			C52,174.821,0,226.821,0,290.321c0,51.9,34.8,96.1,82.2,110.5v12.2c0,11.4,9.4,20.8,20.8,20.8s20.8-9.4,20.8-20.8v-7.3h241.4v7.3
			c0,11.4,9.4,20.8,20.8,20.8s20.8-9.4,20.8-20.8v-12.2c47.4-14.4,82-58.6,81.1-110.5C488,230.521,441.8,180.921,383.4,175.321z
			 M372.5,365.221h-257c-41.6,0-74.9-33.3-74.9-74.9s33.3-74.9,74.9-74.9h257c41.6,0,74.9,33.3,74.9,74.9
			S414.1,365.221,372.5,365.221z"/>
	</g>
</g>
<g>
</g>
<g>
</g>
<g>
</g>
<g>
</g>
<g>
</g>
<g>
</g>
<g>
</g>
<g>
</g>
<g>
</g>
<g>
</g>
<g>
</g>
<g>
</g>
<g>
</g>
<g>
</g>
<g>
</g>
</svg>
